<?xml version="1.0" encoding="utf-8"?>
<!-- Generator: Adobe Illustrator 21.0.0, SVG Export Plug-In . SVG Version: 6.00 Build 0)  -->
<svg version="1.1" id="Layer_1" xmlns="http://www.w3.org/2000/svg" xmlns:xlink="http://www.w3.org/1999/xlink" x="0px" y="0px"
	 viewBox="0 0 216 216" style="enable-background:new 0 0 216 216;" xml:space="preserve">
<style type="text/css">
	.st0{fill:#008641;}
	.st1{fill:#006A31;}
	.st2{fill:#00A651;}
</style>
<g>
	<polygon class="st0" points="169.3,129.5 185.1,134.9 185.1,85.4 170.1,90.1 	"/>
	<polygon class="st0" points="40.5,129.7 24.7,135 24.7,85.6 39.7,90.3 	"/>
	<polygon class="st1" points="39.7,90.3 24.3,84.9 50.2,55.8 60.3,70.6 	"/>
	<polygon class="st1" points="169,89.3 184.3,84.9 159.1,56 149,69.8 	"/>
	<polygon class="st1" points="169.5,130.5 184.5,135 160.4,163.9 149.8,150.2 	"/>
	<polygon class="st1" points="40.5,129.7 25.2,135.1 49,164.2 59.1,149.4 	"/>
	<polygon class="st2" points="150.7,150 59.5,150.2 40.3,129.8 39.7,90.3 60.3,70.6 149.7,70.6 169.2,90 169.5,130.5 	"/>
	<polygon class="st0" points="148.4,70 60.5,69.8 50.9,55.8 158.6,55.8 	"/>
	<polygon class="st0" points="149.4,150 58.5,150.2 48.9,164.2 159.6,164.2 	"/>
	<g>
		<path d="M160.3,164.7l-0.4,0H49.6h-0.7h-0.5l-24-29.9V84.9l25.9-29.3h108.9l0.1,0.2l25.8,29.2v49.8l-0.1,0.1L161.6,164l-0.6,0.7
			h-0.4L160.3,164.7z M48.8,163.7h0.3h0.2h110.8l0.1,0l0.1,0h0.2l23.6-29.3V85.3l-25.4-28.7h-108L25.3,85.3v49.1L48.8,163.7
			L48.8,163.7z"/>
	</g>
	<g>
		<path d="M59.6,150.7l-0.3-0.2h-0.9v-0.6l-19.1-19.7V89.6l21.2-19.8H149l21.2,19.8v40.6l-19.1,19.7v0.6l-1,0l-0.2,0.1l-0.3-0.2H60
			L59.6,150.7z M59.7,149.5l90.4,0l19.1-19.7V90l-20.6-19.2H60.9L40.3,90v39.8l19.1,19.7H59.7z"/>
	</g>
	<g>
		<rect x="55.1" y="54.4" transform="matrix(0.8133 -0.5819 0.5819 0.8133 -26.378 44.1387)" width="1" height="17.5"/>
	</g>
	<g>
		<rect x="31.8" y="79.6" transform="matrix(0.2998 -0.954 0.954 0.2998 -60.7767 92.0594)" width="1" height="15.7"/>
	</g>
	<g>
		<rect x="24.5" y="131.8" transform="matrix(0.9565 -0.2918 0.2918 0.9565 -37.1955 15.1903)" width="15.6" height="1"/>
	</g>
	<g>
		<rect x="44.9" y="156.4" transform="matrix(0.6076 -0.7942 0.7942 0.6076 -103.5667 104.1557)" width="17.4" height="1"/>
	</g>
	<g>
		<rect x="154.5" y="148.4" transform="matrix(0.8174 -0.576 0.576 0.8174 -62.1816 117.9937)" width="1" height="17.3"/>
	</g>
	<g>
		<rect x="176.7" y="124.5" transform="matrix(0.2918 -0.9565 0.9565 0.2918 -1.0431 263.1527)" width="1" height="15.6"/>
	</g>
	<g>
		<rect x="169.3" y="86.9" transform="matrix(0.9543 -0.2989 0.2989 0.9543 -18.033 56.9521)" width="15.7" height="1"/>
	</g>
	<g>
		<rect x="145.2" y="62.7" transform="matrix(0.5823 -0.8129 0.8129 0.5823 12.9277 151.5044)" width="17.5" height="1"/>
	</g>
</g>
</svg>
